<?xml version="1.0" encoding="iso-8859-1"?>
<!-- Uploaded to: SVG Repo, www.svgrepo.com, Generator: SVG Repo Mixer Tools -->
<!DOCTYPE svg PUBLIC "-//W3C//DTD SVG 1.1//EN" "http://www.w3.org/Graphics/SVG/1.1/DTD/svg11.dtd">
<svg fill="#000000" version="1.1" id="Capa_1" xmlns="http://www.w3.org/2000/svg" xmlns:xlink="http://www.w3.org/1999/xlink" 
	 width="800px" height="800px" viewBox="0 0 32.001 32.001"
	 xml:space="preserve">
<g>
	<path d="M29.847,13.116c-0.2-0.551-0.45-1.651-0.351-2.252c0.101-0.601,0.751-0.901,0.852-1.552
		c0.15-1.151-1.602-2.803-2.553-3.153c-1.201-0.45-3.104-0.301-4.305,0.05c-1.752,0.501-3.003,1.502-4.254,2.753
		c-0.465,0.464-1.657,1.999-2.309,2.024c-0.005-0.018-0.01-0.036-0.013-0.055c-0.091-0.361-0.02-0.927-0.114-1.291
		c1.092-0.314,0.877-1.355,0.305-1.952c0.408-0.424,0.634-1.08,0.857-1.581c0.404-0.897,0.701-1.836,1.084-2.741
		c0.348-0.819,1.133-2.483,0.115-3.149c-0.956-0.627-3.352,0.18-2.393,1.523c0.383,0.536,1.142,0.779,1.671,0.334
		c0.253-0.212,0.274-0.579,0.132-0.847c-0.157-0.291-0.556-0.291-0.824-0.222c-0.313,0.08-0.18,0.563,0.133,0.482
		c0.332,0.134,0.324,0.243-0.021,0.328c-0.141,0.016-0.276-0.045-0.395-0.109c-0.268-0.148-0.499-0.44-0.34-0.741
		c0.24-0.456,0.979-0.551,1.422-0.47c0.859,0.156,0.586,1.17,0.4,1.75c-0.242,0.758-0.586,1.493-0.862,2.24
		c-0.242,0.652-0.511,1.292-0.813,1.919c-0.158,0.33-0.302,0.717-0.569,0.974c-0.154-0.081-0.317-0.126-0.476-0.12
		c-0.197-0.171-0.479-0.235-0.781-0.22c0.004-0.475-0.201-0.957-0.404-1.383c-0.404-0.842-1-1.496-1.704-2.102
		c-0.395-0.339-0.797-0.666-1.165-1.035c-0.209-0.209-0.399-0.438-0.551-0.69c-0.18-0.301,0.025-0.666,0.171-0.929
		c0.286-0.515,0.894-0.322,1.304-0.066c0.314,0.196,0.388,0.603,0.154,0.884c-0.123,0.134-0.27,0.161-0.439,0.082
		c-0.018-0.03-0.035-0.061-0.054-0.091c0.001-0.006,0.001-0.01,0.002-0.015c0.241,0.06,0.425-0.31,0.177-0.463
		c-0.378-0.234-0.695,0.076-0.684,0.472c0.016,0.547,0.611,0.745,1.055,0.571c0.521-0.206,0.75-0.926,0.469-1.406
		c-0.313-0.532-1.08-0.915-1.703-0.783c-0.566,0.119-0.988,0.826-1.016,1.38c-0.035,0.763,0.697,1.373,1.215,1.837
		c0.662,0.595,1.435,1.119,1.924,1.88c0.309,0.479,0.848,1.3,0.758,1.947c-0.531,0.162-1.019,0.524-1.119,0.95
		c-0.008,0.035-0.014,0.069-0.018,0.104c-0.002-0.001-0.004-0.002-0.006-0.004l0.006,0.008c-0.072,0.643,0.544,1.102,1.219,1.345
		c0.166,0.43,0.191,0.887,0.139,1.362c-0.619,0.165-1.924-1.523-2.414-2.014c-1.252-1.25-2.503-2.252-4.255-2.752
		c-1.201-0.351-3.103-0.501-4.304-0.05C3.252,6.427,1.5,8.079,1.65,9.229c0.101,0.65,0.751,0.95,0.852,1.551
		c0.1,0.601-0.15,1.702-0.351,2.253c-0.45,1.301-1.852,2.452-1.15,3.854c0.649,1.4,2.151,1.802,3.103,2.853
		c1.302,1.452,1.501,2.804,0.95,4.555c-0.55,1.652-3.003,7.158,0.201,7.608c1.451,0.2,3.904-1.603,4.705-2.653
		c1.15-1.451,1.602-3.151,2.302-4.754c0.479-1.09,1.489-2.898,2.733-3.548c0.023,0.064,0.045,0.13,0.069,0.194
		c0.601,1.501,0.601,3.103,1.101,4.653c0.701-1.301,0.251-3.203,0.852-4.653c0.013-0.028,0.025-0.058,0.037-0.084
		c1.221,0.67,2.211,2.443,2.685,3.52c0.7,1.603,1.15,3.303,2.303,4.755c0.801,1.051,3.253,2.854,4.705,2.652
		c3.203-0.45,0.75-5.956,0.199-7.607c-0.552-1.752-0.351-3.104,0.95-4.555c0.951-1.052,2.453-1.452,3.104-2.854
		C31.701,15.567,30.297,14.417,29.847,13.116z"/>
</g>
</svg>